<mxfile host="Electron" modified="2024-06-04T09:15:18.783Z" agent="Mozilla/5.0 (Windows NT 10.0; Win64; x64) AppleWebKit/537.36 (KHTML, like Gecko) draw.io/24.4.0 Chrome/120.0.6099.109 Electron/28.1.0 Safari/537.36" etag="9UYmWyfI0U2kqll7adWg" version="24.4.0" type="device">
  <diagram name="PÃ¡gina-1" id="5jFx36zS2lgxylLkxexb">
    <mxGraphModel dx="1434" dy="854" grid="1" gridSize="10" guides="1" tooltips="1" connect="1" arrows="1" fold="1" page="1" pageScale="1" pageWidth="827" pageHeight="1169" math="0" shadow="0">
      <root>
        <mxCell id="0" />
        <mxCell id="1" parent="0" />
        <mxCell id="9LlKBFOhufh2RAbY2ce2-14" style="edgeStyle=orthogonalEdgeStyle;curved=1;rounded=0;orthogonalLoop=1;jettySize=auto;html=1;exitX=0.5;exitY=1;exitDx=0;exitDy=0;entryX=0.5;entryY=1;entryDx=0;entryDy=0;" edge="1" parent="1" source="9LlKBFOhufh2RAbY2ce2-3">
          <mxGeometry relative="1" as="geometry">
            <mxPoint x="300" y="440" as="targetPoint" />
            <Array as="points">
              <mxPoint x="530" y="480" />
              <mxPoint x="300" y="480" />
            </Array>
          </mxGeometry>
        </mxCell>
        <mxCell id="9LlKBFOhufh2RAbY2ce2-20" style="edgeStyle=orthogonalEdgeStyle;curved=1;rounded=0;orthogonalLoop=1;jettySize=auto;html=1;exitX=1;exitY=0.5;exitDx=0;exitDy=0;entryX=0;entryY=0.5;entryDx=0;entryDy=0;" edge="1" parent="1" source="9LlKBFOhufh2RAbY2ce2-16" target="9LlKBFOhufh2RAbY2ce2-17">
          <mxGeometry relative="1" as="geometry" />
        </mxCell>
        <mxCell id="9LlKBFOhufh2RAbY2ce2-16" value="S0&lt;div&gt;SelectingGamemode&lt;/div&gt;" style="ellipse;whiteSpace=wrap;html=1;" vertex="1" parent="1">
          <mxGeometry x="80" y="360" width="120" height="80" as="geometry" />
        </mxCell>
        <mxCell id="9LlKBFOhufh2RAbY2ce2-21" style="edgeStyle=orthogonalEdgeStyle;curved=1;rounded=0;orthogonalLoop=1;jettySize=auto;html=1;exitX=1;exitY=0.5;exitDx=0;exitDy=0;entryX=0;entryY=0.5;entryDx=0;entryDy=0;" edge="1" parent="1" source="9LlKBFOhufh2RAbY2ce2-17" target="9LlKBFOhufh2RAbY2ce2-18">
          <mxGeometry relative="1" as="geometry" />
        </mxCell>
        <mxCell id="9LlKBFOhufh2RAbY2ce2-17" value="S1&lt;div&gt;WaitingToStart&lt;/div&gt;" style="ellipse;whiteSpace=wrap;html=1;" vertex="1" parent="1">
          <mxGeometry x="263" y="360" width="120" height="80" as="geometry" />
        </mxCell>
        <mxCell id="9LlKBFOhufh2RAbY2ce2-22" style="edgeStyle=orthogonalEdgeStyle;curved=1;rounded=0;orthogonalLoop=1;jettySize=auto;html=1;exitX=1;exitY=0.5;exitDx=0;exitDy=0;entryX=0;entryY=0.5;entryDx=0;entryDy=0;" edge="1" parent="1" source="9LlKBFOhufh2RAbY2ce2-18" target="9LlKBFOhufh2RAbY2ce2-19">
          <mxGeometry relative="1" as="geometry" />
        </mxCell>
        <mxCell id="9LlKBFOhufh2RAbY2ce2-18" value="&lt;div&gt;S2&lt;/div&gt;InGame" style="ellipse;whiteSpace=wrap;html=1;" vertex="1" parent="1">
          <mxGeometry x="447" y="360" width="120" height="80" as="geometry" />
        </mxCell>
        <mxCell id="9LlKBFOhufh2RAbY2ce2-19" value="S3&lt;div&gt;GameFinished&lt;/div&gt;" style="ellipse;whiteSpace=wrap;html=1;" vertex="1" parent="1">
          <mxGeometry x="630" y="360" width="120" height="80" as="geometry" />
        </mxCell>
        <mxCell id="9LlKBFOhufh2RAbY2ce2-24" value="" style="ellipse;whiteSpace=wrap;html=1;fillColor=none;" vertex="1" parent="1">
          <mxGeometry x="634.5" y="365" width="111" height="70" as="geometry" />
        </mxCell>
        <mxCell id="9LlKBFOhufh2RAbY2ce2-26" style="edgeStyle=orthogonalEdgeStyle;curved=1;rounded=0;orthogonalLoop=1;jettySize=auto;html=1;exitX=1;exitY=0.5;exitDx=0;exitDy=0;entryX=0;entryY=0.5;entryDx=0;entryDy=0;" edge="1" parent="1" source="9LlKBFOhufh2RAbY2ce2-25" target="9LlKBFOhufh2RAbY2ce2-16">
          <mxGeometry relative="1" as="geometry" />
        </mxCell>
        <mxCell id="9LlKBFOhufh2RAbY2ce2-25" value="" style="ellipse;whiteSpace=wrap;html=1;aspect=fixed;fillColor=#000000;" vertex="1" parent="1">
          <mxGeometry x="20" y="390" width="20" height="20" as="geometry" />
        </mxCell>
      </root>
    </mxGraphModel>
  </diagram>
</mxfile>
